<svg width="277" height="277" viewBox="0 0 277 277" fill="none" xmlns="http://www.w3.org/2000/svg">
<g clip-path="url(#clip0_52_398)">
<g filter="url(#filter0_d_52_398)">
<path fill-rule="evenodd" clip-rule="evenodd" d="M148.389 48.4186C144.379 39.5274 140.777 24.1972 140.863 16.3846C140.886 14.2941 140.958 14.38 142.195 17.9636C144.301 24.0658 147.516 30.8167 151.218 36.9108C154.812 42.8267 160.422 49.2947 189.836 81.4366C197.941 90.2945 206.287 99.9577 208.38 102.91C220.512 120.017 228.099 136.781 231.569 154.144C233.48 163.708 233.477 165.565 231.56 161.015C230.755 159.104 229.453 155.41 228.665 152.804C222.696 133.06 205.391 109.819 179.297 86.5032C161.765 70.8376 154.416 61.7821 148.389 48.4186ZM102.05 82.3632C98.051 73.2382 97.9317 63.9566 101.693 54.5948L103.215 50.8054L103.588 56.2609C104.772 73.6083 113.653 90.6425 130.03 106.978C136.984 113.914 142.373 118.61 158.361 131.66C173.461 143.985 180.946 150.846 188.913 159.666C195.569 167.034 195.75 167.52 189.767 161.961C183.297 155.95 171.282 146.355 152.964 132.572C142.846 124.959 131.541 116.155 127.842 113.007C115.373 102.397 105.893 91.1325 102.05 82.3632ZM71.3924 122.805C65.281 109.393 68.5341 95.1727 81.1716 80.0611L83.9824 76.6999L84.4135 80.7438C85.2738 88.8102 88.7023 99.7002 91.284 102.594L97.7077 111.197C105.466 120.441 118.917 130.958 138.852 143.365C160.219 156.665 173.044 166.664 182.234 177.189C188.954 184.884 192.198 190.479 194.649 198.593C196.432 204.497 197.475 215.213 197.475 215.213C198.099 223.742 197.505 229.257 193.336 236.274C186.831 247.225 179.755 251.179 168.832 256.382C163.214 259.059 158.512 260.088 153.649 261.152C152.685 261.363 151.715 261.576 150.731 261.802C143.889 263.378 129.732 263.403 122.165 261.853C88.5988 254.979 56.8463 223.712 47.0179 187.857C44.5822 178.973 43.9916 174.523 44.0001 165.12C44.0108 153.06 45.7559 145.143 50.9951 133.384C52.5818 129.823 54.0921 126.91 54.3517 126.91L64.0427 137.331L102.962 172.217C102.962 172.217 120.082 185.962 121.871 197.176C123.072 204.703 120.365 210.733 114.574 213.751C100.868 220.895 79.8907 203.291 72.7387 197.288C71.1616 195.964 70.2569 195.205 70.2504 195.4C70.0904 200.172 72.4995 203.221 74.9954 206.381C75.5956 207.14 76.2007 207.906 76.7764 208.705C80.309 213.6 83.9485 216.695 90.2048 220.124C97.6868 224.224 104.873 226.113 114.574 226.526C124.482 226.948 128.879 226.165 134.967 222.892C140.586 219.871 144.343 215.589 145.634 210.733C146.718 206.66 146.71 204.394 145.601 200.222C142.639 189.086 131.644 176.788 114.222 165.126C91.2133 149.722 77.4694 136.142 71.3924 122.805ZM186.831 140.488C186.831 140.488 139.6 99.033 132.245 86.2873C125.703 74.9509 125.292 73.6666 123.733 68.8021C123.539 68.1973 123.327 67.5374 123.084 66.796C120.901 60.4146 119.532 53.8055 118.554 45.0326C122.27 35.1224 129.473 22.0104 129.473 22.0104C132.325 35.8343 138.183 55.8578 138.183 55.8578C143.811 73.0549 156.778 87.7673 169.861 98.4887C170.718 99.1918 171.566 99.8852 172.403 100.57C191.99 116.6 206.01 128.073 219.356 151.857C226.268 164.173 227.977 170.164 230.669 184.699C235.761 212.172 202.103 234.593 202.103 234.593C213.983 210.593 219.882 189.419 208.485 165.435C202.789 153.451 186.831 140.488 186.831 140.488Z" fill="#06617C"/>
</g>
</g>
<defs>
<filter id="filter0_d_52_398" x="24" y="-1" width="229" height="288" filterUnits="userSpaceOnUse" color-interpolation-filters="sRGB">
<feFlood flood-opacity="0" result="BackgroundImageFix"/>
<feColorMatrix in="SourceAlpha" type="matrix" values="0 0 0 0 0 0 0 0 0 0 0 0 0 0 0 0 0 0 127 0" result="hardAlpha"/>
<feOffset dy="4"/>
<feGaussianBlur stdDeviation="10"/>
<feComposite in2="hardAlpha" operator="out"/>
<feColorMatrix type="matrix" values="0 0 0 0 0 0 0 0 0 0 0 0 0 0 0 0 0 0 0.25 0"/>
<feBlend mode="normal" in2="BackgroundImageFix" result="effect1_dropShadow_52_398"/>
<feBlend mode="normal" in="SourceGraphic" in2="effect1_dropShadow_52_398" result="shape"/>
</filter>
<clipPath id="clip0_52_398">
<rect width="277" height="277" fill="white"/>
</clipPath>
</defs>
</svg>
