<svg width="2805" height="1581" viewBox="0 0 2805 1581" fill="none" xmlns="http://www.w3.org/2000/svg">
<g filter="url(#filter0_d_38_265)">
<path fill-rule="evenodd" clip-rule="evenodd" d="M2800.44 0H4V409.099C37.4423 507.619 111.024 591.935 185.256 653.685C190.212 657.811 195.109 661.879 199.951 665.899L199.952 665.9C313.156 759.945 394.184 827.26 471.324 966.798C511.269 1039.06 521.147 1074.21 536.71 1159.48C566.136 1320.67 371.607 1452.22 371.607 1452.22C440.266 1311.41 474.361 1187.18 408.49 1046.46C375.572 976.152 283.337 900.1 283.337 900.1C283.337 900.1 90.8851 728.628 4 629.37V750.506C30.4326 774.471 63.7423 802.689 118.791 848.301C206.062 920.616 249.322 960.87 295.374 1012.62C333.839 1055.84 334.885 1058.7 300.309 1026.08C262.915 990.813 193.468 934.517 87.5975 853.655C59.4306 832.141 29.6715 809.005 4 788.737V915.693C4.6764 916.121 5.35411 916.549 6.03311 916.978C129.529 995.005 203.654 1053.67 256.77 1115.42C295.606 1160.57 314.357 1193.39 328.524 1241C338.828 1275.64 344.859 1338.51 344.859 1338.51C348.461 1388.55 345.028 1420.91 320.933 1462.08C286.278 1521.3 248.821 1545.64 193.726 1573H2800.44V0ZM4 1370.39C25.1832 1354.25 39.4652 1334.25 45.2316 1312.23C51.4948 1288.33 51.4526 1275.03 45.0418 1250.56C38.324 1224.92 24.4562 1198.23 4 1171.13V1370.39ZM17.6569 171.978C17.1592 217.814 37.9773 307.757 61.1573 359.922C95.9906 438.326 138.466 491.456 239.794 583.366C390.608 720.164 490.624 856.519 525.124 972.357C529.679 987.644 537.208 1009.32 541.86 1020.53C552.939 1047.22 552.952 1036.33 541.91 980.216C521.856 878.345 478.005 779.992 407.887 679.628C395.787 662.304 347.55 605.61 300.705 553.64C130.702 365.063 98.2807 327.115 77.5048 292.406C56.1088 256.652 37.5261 217.043 25.354 181.242C18.2052 160.217 17.7876 159.713 17.6569 171.978Z" fill="#06617C"/>
</g>
<defs>
<filter id="filter0_d_38_265" x="0" y="0" width="2804.44" height="1581" filterUnits="userSpaceOnUse" color-interpolation-filters="sRGB">
<feFlood flood-opacity="0" result="BackgroundImageFix"/>
<feColorMatrix in="SourceAlpha" type="matrix" values="0 0 0 0 0 0 0 0 0 0 0 0 0 0 0 0 0 0 127 0" result="hardAlpha"/>
<feOffset dy="4"/>
<feGaussianBlur stdDeviation="2"/>
<feComposite in2="hardAlpha" operator="out"/>
<feColorMatrix type="matrix" values="0 0 0 0 0 0 0 0 0 0 0 0 0 0 0 0 0 0 0.25 0"/>
<feBlend mode="normal" in2="BackgroundImageFix" result="effect1_dropShadow_38_265"/>
<feBlend mode="normal" in="SourceGraphic" in2="effect1_dropShadow_38_265" result="shape"/>
</filter>
</defs>
</svg>
