<svg width="2820" height="1590" viewBox="0 0 2820 1590" fill="none" xmlns="http://www.w3.org/2000/svg">
<g filter="url(#filter0_d_38_268)">
<path fill-rule="evenodd" clip-rule="evenodd" d="M2816 45.9095V0H2797.33C2798.91 3.73317 2800.99 9.12414 2803.76 16.3539C2807.45 26.0242 2811.55 35.905 2816 45.9095ZM2792.41 0H4V1581.75H2119.97C2060.32 1505.35 2014.22 1420.34 1987.3 1331.7C1966.41 1262.92 1961.34 1228.47 1961.42 1155.67C1961.51 1062.3 1976.48 1001.01 2021.42 909.962C2035.03 882.396 2047.99 859.839 2050.22 859.839L2133.35 940.524L2467.2 1210.61C2467.2 1210.61 2614.07 1317.04 2629.41 1403.85C2639.72 1462.13 2616.49 1508.82 2566.82 1532.18C2449.25 1587.49 2269.3 1451.19 2207.94 1404.72C2194.42 1394.47 2186.65 1388.59 2186.6 1390.1C2185.23 1427.05 2205.89 1450.66 2227.3 1475.12L2227.3 1475.12C2232.45 1481 2237.64 1486.93 2242.58 1493.11C2272.88 1531.01 2304.1 1554.97 2357.77 1581.52C2357.92 1581.6 2358.08 1581.67 2358.23 1581.75H2777.52C2793.28 1570.33 2806.22 1557.56 2816 1543.79V1386.28C2776.64 1311.49 2689.82 1231.85 2563.8 1155.72C2366.42 1036.46 2248.52 931.315 2196.4 828.059C2143.97 724.217 2171.88 614.124 2280.28 497.126L2304.4 471.103L2308.09 502.412C2315.47 564.864 2344.88 649.177 2367.03 671.583L2422.14 738.189C2488.69 809.759 2604.07 891.183 2775.08 987.241C2789.15 995.142 2802.78 1002.89 2816 1010.51V848.663C2756.25 807.221 2702.69 769.137 2680.64 752.199C2573.67 670.056 2492.35 582.844 2459.38 514.949C2425.08 444.302 2424.06 372.441 2456.32 299.961L2469.38 270.622L2472.58 312.86C2482.74 447.167 2558.92 579.05 2699.41 705.52C2735.48 737.999 2766.65 764.135 2816 802.074V650.476C2770.18 607.363 2733.93 569.616 2718.4 545.331C2662.29 457.562 2658.76 447.619 2645.39 409.956L2645.15 409.293C2643.55 404.792 2641.81 399.895 2639.82 394.425C2621.09 345.019 2609.35 293.849 2600.96 225.928C2632.84 149.201 2694.62 47.6854 2694.62 47.6854C2719.09 154.713 2769.35 309.739 2769.35 309.739C2781.33 342.797 2797.2 374.67 2816 405.177V141.829C2801.46 90.3304 2791.92 38.0681 2792.33 4.12945C2792.35 2.59952 2792.37 1.22016 2792.41 0Z" fill="#CDDEE9"/>
</g>
<defs>
<filter id="filter0_d_38_268" x="0" y="0" width="2820" height="1589.75" filterUnits="userSpaceOnUse" color-interpolation-filters="sRGB">
<feFlood flood-opacity="0" result="BackgroundImageFix"/>
<feColorMatrix in="SourceAlpha" type="matrix" values="0 0 0 0 0 0 0 0 0 0 0 0 0 0 0 0 0 0 127 0" result="hardAlpha"/>
<feOffset dy="4"/>
<feGaussianBlur stdDeviation="2"/>
<feComposite in2="hardAlpha" operator="out"/>
<feColorMatrix type="matrix" values="0 0 0 0 0 0 0 0 0 0 0 0 0 0 0 0 0 0 0.25 0"/>
<feBlend mode="normal" in2="BackgroundImageFix" result="effect1_dropShadow_38_268"/>
<feBlend mode="normal" in="SourceGraphic" in2="effect1_dropShadow_38_268" result="shape"/>
</filter>
</defs>
</svg>
