<svg width="277" height="277" viewBox="0 0 277 277" fill="none" xmlns="http://www.w3.org/2000/svg">
<circle cx="138.5" cy="138.5" r="107.5" fill="#06617C"/>
<g filter="url(#filter0_d_52_401)">
<path d="M63.8123 199.755C62.7475 199.461 62.1228 198.36 62.4169 197.295L67.2092 179.945C67.5033 178.88 68.6048 178.255 69.6695 178.549C70.7342 178.843 71.3589 179.945 71.0648 181.01L66.805 196.432L82.2275 200.692C83.2922 200.986 83.917 202.087 83.6229 203.152C83.3288 204.217 82.2273 204.842 81.1626 204.547L63.8123 199.755ZM216.419 126.1C217.522 126.052 218.456 126.907 218.504 128.01C218.552 129.114 217.697 130.048 216.594 130.096L216.419 126.1ZM63.3581 196.088C80.7922 186.2 94.8926 177.09 107.284 168.927C119.655 160.777 130.389 153.524 140.992 147.429C162.317 135.17 183.175 127.556 216.419 126.1L216.594 130.096C184.039 131.522 163.8 138.931 142.985 150.897C132.518 156.914 121.922 164.073 109.484 172.267C97.067 180.448 82.8804 189.614 65.3314 199.567L63.3581 196.088Z" fill="#CDDEE9"/>
</g>
<g filter="url(#filter1_d_52_401)">
<path fill-rule="evenodd" clip-rule="evenodd" d="M127.692 100.632C124.857 97.5232 121.35 91.7219 120.364 88.5097C120.099 87.6503 120.141 87.6759 121.125 88.9794C122.801 91.1991 125.024 93.5371 127.364 95.5411C129.635 97.4864 132.819 99.3898 149.278 108.644C153.814 111.194 158.555 114.042 159.814 114.973C167.106 120.367 172.461 126.225 176.179 132.877C178.226 136.541 178.468 137.302 177.074 135.693C176.489 135.018 175.463 133.677 174.794 132.715C169.723 125.42 159.472 118.202 145.551 112.122C136.198 108.037 131.951 105.305 127.692 100.632ZM112.831 120.706C109.971 117.5 108.707 113.713 109.048 109.377L109.186 107.622L110.056 109.807C112.82 116.757 118.749 122.554 127.709 127.066C131.513 128.983 134.373 130.189 142.741 133.408C150.644 136.448 154.66 138.263 159.133 140.816C162.87 142.949 163.009 143.124 159.789 141.643C156.307 140.041 150.046 137.709 140.612 134.5C135.401 132.728 129.539 130.625 127.586 129.828C121.003 127.14 115.58 123.787 112.831 120.706ZM105.354 141.354C101.053 136.673 100.547 130.414 103.833 122.541L104.564 120.79L105.273 122.389C106.687 125.58 109.541 129.585 110.995 130.427L114.797 133.097C119.239 135.851 126.218 138.37 136.146 140.8C146.787 143.405 153.438 145.795 158.644 148.884C162.45 151.142 164.534 153.003 166.617 156.001C168.133 158.183 169.97 162.434 169.97 162.434C171.346 165.845 171.82 168.184 171.002 171.613C169.726 176.965 167.296 179.527 163.427 183.112C161.437 184.957 159.613 186.004 157.726 187.087C157.353 187.302 156.977 187.518 156.596 187.742C153.952 189.298 148.058 191.192 144.703 191.564C129.821 193.215 112.502 184.631 103.715 171.249C101.538 167.934 100.709 166.189 99.4822 162.336C97.9082 157.393 97.5989 153.918 98.2422 148.403C98.4371 146.733 98.6849 145.338 98.7931 145.304L104.194 148.284L124.972 157.397C124.972 157.397 133.903 160.75 136.116 165.106C137.601 168.029 137.263 170.86 135.245 172.867C130.471 177.618 119.429 173.197 115.664 171.69C114.834 171.358 114.357 171.167 114.38 171.248C114.938 173.224 116.341 174.153 117.794 175.115C118.143 175.346 118.496 175.58 118.84 175.83C120.952 177.365 122.873 178.149 125.928 178.721C129.582 179.405 132.822 179.223 136.917 178.101C141.1 176.955 142.829 176.049 144.937 173.898C146.882 171.913 147.886 169.659 147.789 167.498C147.707 165.685 147.407 164.757 146.399 163.196C143.708 159.028 137.518 155.452 128.735 152.993C117.134 149.744 109.631 146.01 105.354 141.354ZM155.755 133.236C155.755 133.236 130.655 122.538 125.923 118.295C121.714 114.521 121.375 114.05 120.089 112.264C119.929 112.042 119.754 111.8 119.556 111.529C117.811 109.205 116.376 106.679 114.82 103.215C115.071 98.6608 116.355 92.3304 116.355 92.3304C119.353 97.6143 124.414 105.038 124.414 105.038C129.009 111.335 136.336 115.637 143.189 118.288C143.638 118.462 144.082 118.633 144.521 118.802C154.778 122.763 162.119 125.598 170.792 133.565C175.283 137.691 176.779 139.919 179.803 145.515C185.52 156.093 174.434 169.758 174.434 169.758C176.241 158.344 175.927 148.885 168.041 140.575C164.1 136.423 155.755 133.236 155.755 133.236Z" fill="white"/>
</g>
<path d="M64.4193 195.829C63.3155 195.788 62.3872 196.649 62.3458 197.753C62.3044 198.856 63.1656 199.785 64.2694 199.826L64.4193 195.829ZM221.495 127.304C221.215 126.235 220.121 125.596 219.053 125.877L201.642 130.445C200.574 130.725 199.935 131.818 200.215 132.887C200.496 133.955 201.589 134.594 202.657 134.314L218.134 130.253L222.194 145.73C222.474 146.798 223.568 147.437 224.636 147.157C225.705 146.876 226.343 145.783 226.063 144.714L221.495 127.304ZM64.2694 199.826C107.107 201.433 136.132 201.481 159.552 192.141C183.13 182.738 200.754 163.961 221.287 128.82L217.834 126.802C197.455 161.678 180.405 179.519 158.071 188.425C135.579 197.395 107.451 197.443 64.4193 195.829L64.2694 199.826Z" fill="#CDDEE9"/>
<defs>
<filter id="filter0_d_52_401" x="58.3442" y="126.098" width="164.162" height="86.5222" filterUnits="userSpaceOnUse" color-interpolation-filters="sRGB">
<feFlood flood-opacity="0" result="BackgroundImageFix"/>
<feColorMatrix in="SourceAlpha" type="matrix" values="0 0 0 0 0 0 0 0 0 0 0 0 0 0 0 0 0 0 127 0" result="hardAlpha"/>
<feOffset dy="4"/>
<feGaussianBlur stdDeviation="2"/>
<feComposite in2="hardAlpha" operator="out"/>
<feColorMatrix type="matrix" values="0 0 0 0 0 0 0 0 0 0 0 0 0 0 0 0 0 0 0.25 0"/>
<feBlend mode="normal" in2="BackgroundImageFix" result="effect1_dropShadow_52_401"/>
<feBlend mode="normal" in="SourceGraphic" in2="effect1_dropShadow_52_401" result="shape"/>
</filter>
<filter id="filter1_d_52_401" x="77.9277" y="71.9229" width="123.513" height="143.844" filterUnits="userSpaceOnUse" color-interpolation-filters="sRGB">
<feFlood flood-opacity="0" result="BackgroundImageFix"/>
<feColorMatrix in="SourceAlpha" type="matrix" values="0 0 0 0 0 0 0 0 0 0 0 0 0 0 0 0 0 0 127 0" result="hardAlpha"/>
<feOffset dy="4"/>
<feGaussianBlur stdDeviation="10"/>
<feComposite in2="hardAlpha" operator="out"/>
<feColorMatrix type="matrix" values="0 0 0 0 0 0 0 0 0 0 0 0 0 0 0 0 0 0 0.25 0"/>
<feBlend mode="normal" in2="BackgroundImageFix" result="effect1_dropShadow_52_401"/>
<feBlend mode="normal" in="SourceGraphic" in2="effect1_dropShadow_52_401" result="shape"/>
</filter>
</defs>
</svg>
