<svg width="288" height="242" viewBox="0 0 288 242" fill="none" xmlns="http://www.w3.org/2000/svg">
<g filter="url(#filter0_d_113_39)">
<path fill-rule="evenodd" clip-rule="evenodd" d="M0 97.6858L0.0390153 236.98L285.485 237.604C288.582 226.865 288.235 209.86 285.231 201.896C266.289 194.375 248.484 183.671 226.733 174.741C205.318 165.948 183.684 158.92 161.465 152.468C122.284 141.085 29.1883 124.284 20.3318 120.91L38.235 121.378L197.291 122.578L287.04 121.227C287.255 115.604 287.601 109.044 287.479 103.245C287.25 92.3699 288.733 93.755 284.407 86.7517C254.624 83.689 241.485 77.9733 209.078 85.2545C184.357 90.8093 169.497 96.9835 141.884 99.0464C75.7287 103.997 34.6407 72.6819 0 97.6809L0 97.6858Z" fill="#CDDEE9"/>
<path fill-rule="evenodd" clip-rule="evenodd" d="M0 97.6858C34.6407 72.6867 75.7287 103.997 141.884 99.0513C169.497 96.9884 184.357 90.8142 209.078 85.2594C241.485 77.9733 254.624 83.6891 284.407 86.7566C287.538 82.2552 285.533 87.615 287.05 80.3484C287.465 78.3586 287.967 71.4431 287.826 69.5606C286.694 54.7641 289.606 61.6893 281.871 55.4956C256.252 52.3598 240.973 43.0888 210.356 43.435C185.093 43.7179 164.386 50.8235 139.826 52.9304C76.8553 58.3291 53.0169 39.8163 0.0585229 36.2367L0 97.6955L0 97.6858Z" fill="#6E867D"/>
<path fill-rule="evenodd" clip-rule="evenodd" d="M0.492607 7.697L0.234131 24.4638C36.8549 39.8212 101.245 40.3967 140.177 30.4332C216.964 10.7841 217.954 28.024 287.952 31.4281L287.162 15.9829C272 7.66286 238.067 4.04419 218.9 1.70327C185.206 -2.41284 178.446 1.32775 149.458 8.67238C95.3534 22.3814 51.8855 -1.9349 0.48773 7.697H0.492607Z" fill="#6E867D"/>
<path fill-rule="evenodd" clip-rule="evenodd" d="M0.0585938 36.227C53.017 39.8066 76.8553 58.3194 139.826 52.9206C164.386 50.8138 185.098 43.7081 210.356 43.4253C240.973 43.079 256.253 52.35 281.871 55.4859C290.362 54.0423 285.246 57.778 287.801 49.8823L287.948 31.4232C217.949 28.0191 216.954 10.7792 140.172 30.4283C101.24 40.3918 36.85 39.8164 0.229286 24.459L0.487762 7.69214L0.0585938 36.2221V36.227Z" fill="#CDDEE9"/>
<path fill-rule="evenodd" clip-rule="evenodd" d="M285.227 201.896C285.226 201.896 285.226 201.895 285.227 201.895C287.991 196.695 288.258 185.918 287.845 175.484C287.447 165.418 279.812 157.163 269.898 155.38C233.994 148.922 199.183 142.403 162.513 136.833C131.476 132.115 62.9735 128.349 38.5871 121.483C38.3429 121.414 38.1066 121.379 37.853 121.373V121.373C34.4901 121.285 34.0628 124.279 37.3531 124.979C68.1111 131.529 131.041 143.635 161.465 152.473C183.684 158.925 205.318 165.948 226.732 174.746C248.481 183.68 266.286 194.378 285.225 201.898C285.227 201.899 285.228 201.897 285.227 201.896V201.896Z" fill="black"/>
<path fill-rule="evenodd" clip-rule="evenodd" d="M286.763 158.389L287.562 128.147L197.291 122.578L38.2351 121.378C62.3075 128.313 131.326 132.088 162.513 136.828C204.899 143.266 244.792 150.976 286.763 158.384V158.389Z" fill="#6E867D"/>
<ellipse cx="49.4092" cy="165.445" rx="5.77273" ry="4.96296" fill="black"/>
<ellipse cx="72.5" cy="175.37" rx="5.77273" ry="4.96296" fill="black"/>
<ellipse cx="95.5908" cy="185.296" rx="5.77273" ry="4.96296" fill="black"/>
<ellipse cx="118.682" cy="195.222" rx="5.77273" ry="4.96296" fill="black"/>
<ellipse cx="141.773" cy="205.148" rx="5.77273" ry="4.96296" fill="black"/>
<ellipse cx="176.409" cy="185.296" rx="5.77273" ry="4.96296" fill="black"/>
<ellipse cx="211.045" cy="180.333" rx="5.77273" ry="4.96296" fill="black"/>
<ellipse cx="222.591" cy="205.148" rx="5.77273" ry="4.96296" fill="black"/>
<ellipse cx="245.682" cy="210.111" rx="5.77273" ry="4.96296" fill="black"/>
<ellipse cx="136" cy="170.408" rx="5.77273" ry="4.96296" fill="black"/>
<ellipse cx="26.3184" cy="130.704" rx="5.77273" ry="4.96296" fill="black"/>
<ellipse cx="32.0908" cy="105.889" rx="5.77273" ry="4.96296" fill="black"/>
<ellipse cx="66.7271" cy="105.889" rx="5.77273" ry="4.96296" fill="black"/>
<ellipse cx="101.364" cy="105.889" rx="5.77273" ry="4.96296" fill="black"/>
<ellipse cx="136" cy="115.815" rx="5.77273" ry="4.96296" fill="black"/>
<ellipse cx="182.182" cy="105.889" rx="5.77273" ry="4.96296" fill="black"/>
<ellipse cx="228.364" cy="95.963" rx="5.77273" ry="4.96296" fill="black"/>
<ellipse cx="257.227" cy="105.889" rx="5.77273" ry="4.96296" fill="black"/>
<ellipse cx="26.3184" cy="210.111" rx="5.77273" ry="4.96296" fill="black"/>
<ellipse cx="14.7727" cy="165.445" rx="5.77273" ry="4.96296" fill="black"/>
<ellipse cx="55.1819" cy="150.556" rx="5.77273" ry="4.96296" fill="black"/>
<ellipse cx="66.7271" cy="205.148" rx="5.77273" ry="4.96296" fill="black"/>
<ellipse cx="89.8184" cy="150.556" rx="5.77273" ry="4.96296" fill="black"/>
<ellipse cx="176.409" cy="215.074" rx="5.77273" ry="4.96296" fill="black"/>
<ellipse cx="101.364" cy="210.111" rx="5.77273" ry="4.96296" fill="black"/>
<ellipse cx="26.3184" cy="185.296" rx="5.77273" ry="4.96296" fill="black"/>
<ellipse cx="20.5454" cy="145.592" rx="5.77273" ry="4.96296" fill="black"/>
<ellipse cx="14.7727" cy="105.889" rx="5.77273" ry="4.96296" fill="black"/>
<ellipse cx="164.864" cy="165.445" rx="5.77273" ry="4.96296" fill="black"/>
<ellipse cx="211.045" cy="220.037" rx="5.77273" ry="4.96296" fill="black"/>
<ellipse cx="107.136" cy="170.408" rx="5.77273" ry="4.96296" fill="black"/>
<ellipse cx="112.909" cy="155.518" rx="5.77273" ry="4.96296" fill="black"/>
<ellipse cx="14.7727" cy="130.704" rx="5.77273" ry="4.96296" fill="black"/>
<ellipse cx="49.4092" cy="205.148" rx="5.77273" ry="4.96296" fill="black"/>
</g>
<defs>
<filter id="filter0_d_113_39" x="0" y="0" width="288" height="241.604" filterUnits="userSpaceOnUse" color-interpolation-filters="sRGB">
<feFlood flood-opacity="0" result="BackgroundImageFix"/>
<feColorMatrix in="SourceAlpha" type="matrix" values="0 0 0 0 0 0 0 0 0 0 0 0 0 0 0 0 0 0 127 0" result="hardAlpha"/>
<feOffset dy="4"/>
<feComposite in2="hardAlpha" operator="out"/>
<feColorMatrix type="matrix" values="0 0 0 0 0 0 0 0 0 0 0 0 0 0 0 0 0 0 0.6 0"/>
<feBlend mode="normal" in2="BackgroundImageFix" result="effect1_dropShadow_113_39"/>
<feBlend mode="normal" in="SourceGraphic" in2="effect1_dropShadow_113_39" result="shape"/>
</filter>
</defs>
</svg>
