<svg width="134" height="158" viewBox="0 0 134 158" fill="none" xmlns="http://www.w3.org/2000/svg">
<path fill-rule="evenodd" clip-rule="evenodd" d="M73.9839 21.7899C71.1415 16.146 68.5889 6.41477 68.6498 1.45558C68.6659 0.128591 68.7172 0.183118 69.594 2.45785C71.0865 6.33138 73.3653 10.6167 75.9888 14.485C78.5361 18.2403 82.5119 22.346 103.359 42.7488C109.103 48.3715 115.018 54.5053 116.502 56.3796C125.1 67.2384 130.477 77.8793 132.936 88.901C134.29 94.9723 134.289 96.1509 132.93 93.2628C132.36 92.0501 131.436 89.7048 130.878 88.0511C126.648 75.518 114.383 60.7654 95.8893 45.9649C83.4641 36.0208 78.2555 30.2726 73.9839 21.7899ZM41.1417 43.3369C38.3077 37.5447 38.2231 31.6529 40.8888 25.7103L41.9676 23.3049L42.2318 26.7679C43.0713 37.7796 49.3655 48.5924 60.9721 58.9614C65.9004 63.3645 69.7206 66.3453 81.0514 74.6292C91.7528 82.4528 97.0576 86.8083 102.705 92.4069C107.422 97.0838 107.55 97.3921 103.31 93.8638C98.7245 90.0476 90.2089 83.957 77.2264 75.2081C70.0554 70.3756 62.0433 64.7869 59.4218 62.7888C50.5842 56.0537 43.8655 48.9035 41.1417 43.3369ZM19.4139 69.0081C15.0825 60.4945 17.3881 51.4681 26.3447 41.8756L28.3368 39.742L28.6423 42.309C29.2521 47.4293 31.682 54.3422 33.5117 56.1791L38.0644 61.6398C43.5632 67.5079 53.0963 74.1838 67.2246 82.0595C82.368 90.5014 91.4577 96.8485 97.9712 103.53C102.733 108.414 105.033 111.965 106.77 117.117C108.034 120.864 108.773 127.666 108.773 127.666C109.215 133.08 108.794 136.581 105.839 141.035C101.229 147.986 96.2142 150.496 88.4726 153.799C84.4905 155.499 81.1585 156.152 77.7115 156.827C77.0287 156.961 76.3414 157.096 75.6436 157.24C70.7947 158.24 60.7612 158.256 55.3979 157.272C31.6086 152.908 9.10462 133.061 2.13889 110.301C0.412594 104.662 -0.00595 101.837 6.35733e-05 95.8687C0.00768077 88.2135 1.24447 83.1881 4.95765 75.7232C6.08219 73.4633 7.15261 71.614 7.33662 71.614L14.2049 78.2293L41.788 100.373C41.788 100.373 53.9218 109.099 55.1898 116.217C56.0409 120.994 54.1223 124.822 50.0182 126.738C40.3042 131.273 25.4369 120.098 20.368 116.288C19.2504 115.448 18.6091 114.966 18.6045 115.089C18.4911 118.119 20.1985 120.054 21.9674 122.06C22.3928 122.542 22.8217 123.028 23.2297 123.535C25.7334 126.642 28.3128 128.607 32.7468 130.784C38.0496 133.386 43.1426 134.585 50.0182 134.847C57.04 135.115 60.1567 134.618 64.4708 132.541C68.4534 130.623 71.1162 127.905 72.0315 124.822C72.7992 122.237 72.794 120.799 72.0078 118.151C69.9087 111.082 62.1159 103.275 49.7688 95.8723C33.4616 86.0947 23.7208 77.474 19.4139 69.0081ZM101.229 80.2334C101.229 80.2334 67.7548 53.9184 62.5422 45.8279C57.9058 38.6319 57.6141 37.8167 56.5094 34.7288C56.3721 34.3449 56.2222 33.926 56.0498 33.4553C54.5024 29.4046 53.5323 25.2094 52.8392 19.6405C55.4723 13.3499 60.5772 5.02673 60.5772 5.02673C62.5987 13.8018 66.7508 26.5121 66.7508 26.5121C70.7394 37.4284 79.9293 46.7674 89.2015 53.5732C89.8095 54.0195 90.41 54.4596 91.0033 54.8945C104.885 65.0694 114.821 72.3524 124.281 87.4497C129.179 95.2673 130.39 99.0709 132.299 108.297C135.907 125.736 112.053 139.968 112.053 139.968C120.472 124.734 124.653 111.293 116.576 96.0691C112.539 88.4617 101.229 80.2334 101.229 80.2334Z" fill="#06617C"/>
</svg>
