<svg width="89" height="70" viewBox="0 0 89 70" fill="none" xmlns="http://www.w3.org/2000/svg">
<path d="M0.0820312 66L9.22266 52.3574H12.8457L13.8613 66H10.9316L10.7754 63.0215H5.11133L3.28516 66H0.0820312ZM6.53711 60.8926H10.6777L10.4629 54.3789L6.53711 60.8926ZM15.8145 66L19.8574 52.3574H24.1055C25.9219 52.3574 27.3151 52.7773 28.2852 53.6172C29.2617 54.4505 29.75 55.6289 29.75 57.1523C29.75 59.3008 29.0632 61.3125 27.6895 63.1875C26.3158 65.0625 24.0241 66 20.8145 66H15.8145ZM19.3691 63.8711H21C22.9857 63.8711 24.4505 63.1745 25.3945 61.7812C26.3451 60.3815 26.8203 58.8971 26.8203 57.3281C26.8203 56.319 26.5469 55.5898 26 55.1406C25.4531 54.6849 24.4896 54.457 23.1094 54.457H22.1621L19.3691 63.8711ZM36.8887 66L40.9316 52.3574H44.7109H45.2285C46.9277 52.3574 48.0931 52.6081 48.7246 53.1094C49.3626 53.6107 49.6816 54.291 49.6816 55.1504C49.6816 56.0228 49.3659 56.8398 48.7344 57.6016C48.1094 58.3568 47.1979 58.793 46 58.9102C46.918 59.0859 47.569 59.4342 47.9531 59.9551C48.3438 60.4694 48.5391 61.0358 48.5391 61.6543C48.5391 62.8132 48.0736 63.8288 47.1426 64.7012C46.2116 65.5671 44.9128 66 43.2461 66H36.8887ZM40.4434 63.8711H42.2109C43.2982 63.8711 44.1348 63.6302 44.7207 63.1484C45.3132 62.6667 45.6094 62.1035 45.6094 61.459C45.6094 61.0553 45.4596 60.694 45.1602 60.375C44.8607 60.0495 44.2454 59.8867 43.3145 59.8867H41.625L40.4434 63.8711ZM42.25 57.7871H43.6367C44.5417 57.7871 45.2871 57.6113 45.873 57.2598C46.459 56.9082 46.752 56.4004 46.752 55.7363C46.752 55.2936 46.5794 54.9714 46.2344 54.7695C45.8893 54.5612 45.3555 54.457 44.6328 54.457H43.2363L42.25 57.7871ZM51.9668 66H49.2129L52.0547 56.4199H54.4668L54.2031 57.9043C54.6654 57.2533 55.1016 56.8008 55.5117 56.5469C55.9219 56.293 56.3939 56.166 56.9277 56.166C57.1296 56.166 57.3184 56.166 57.4941 56.166L56.6152 58.6953C56.4915 58.6953 56.3516 58.6953 56.1953 58.6953C55.5182 58.6953 54.9453 58.8939 54.4766 59.291C54.0078 59.6816 53.5944 60.4889 53.2363 61.7129L53.1191 62.123L51.9668 66ZM58.3242 59.0664C58.5977 58.0182 59.1445 57.2728 59.9648 56.8301C60.7852 56.3874 61.7715 56.166 62.9238 56.166C64.0241 56.166 64.9062 56.3711 65.5703 56.7812C66.2344 57.1849 66.5664 57.8001 66.5664 58.627C66.5664 59.2064 66.2734 60.4368 65.6875 62.3184C65.1016 64.1999 64.8086 65.4271 64.8086 66H62.2695C62.2695 65.6224 62.3053 65.2708 62.377 64.9453C61.778 65.4727 61.2474 65.8242 60.7852 66C60.3294 66.1693 59.8542 66.2539 59.3594 66.2539C58.526 66.2539 57.8587 66.0293 57.3574 65.5801C56.8561 65.1243 56.6055 64.4993 56.6055 63.7051C56.6055 62.5397 57.0775 61.6087 58.0215 60.9121C58.9655 60.2155 60.5605 59.8672 62.8066 59.8672H63.666C63.8483 59.3268 63.9395 58.9492 63.9395 58.7344C63.9395 58.513 63.8223 58.3112 63.5879 58.1289C63.36 57.9401 63.0443 57.8457 62.6406 57.8457C62.1979 57.8457 61.8431 57.9499 61.5762 58.1582C61.3092 58.3665 61.1139 58.6693 60.9902 59.0664H58.3242ZM63.2266 61.2637H62.6602C61.5078 61.2637 60.6615 61.4688 60.1211 61.8789C59.5807 62.2826 59.3105 62.7643 59.3105 63.3242C59.3105 64.1055 59.6621 64.4961 60.3652 64.4961C60.9447 64.4961 61.4785 64.2292 61.9668 63.6953C62.4616 63.1549 62.8815 62.3444 63.2266 61.2637ZM67.3965 62.9141H70.0137C70.0137 63.0117 70.0137 63.1094 70.0137 63.207C70.0137 64.0859 70.4824 64.5254 71.4199 64.5254C71.8561 64.5254 72.2533 64.4245 72.6113 64.2227C72.9694 64.0143 73.1484 63.7246 73.1484 63.3535C73.1484 63.0605 72.9922 62.8034 72.6797 62.582C72.3672 62.3607 71.8919 62.0905 71.2539 61.7715C70.3229 61.3027 69.7044 60.8893 69.3984 60.5312C69.0924 60.1732 68.9395 59.7207 68.9395 59.1738C68.9395 58.2559 69.3333 57.5267 70.1211 56.9863C70.9154 56.4395 71.9733 56.166 73.2949 56.166C74.3626 56.166 75.222 56.3743 75.873 56.791C76.5241 57.2012 76.8496 57.748 76.8496 58.4316C76.8496 58.6855 76.791 58.9948 76.6738 59.3594H74.1445V59.2227V58.998C74.1445 58.5553 74.0306 58.2526 73.8027 58.0898C73.5814 57.9271 73.3014 57.8457 72.9629 57.8457C72.5918 57.8457 72.2728 57.9434 72.0059 58.1387C71.7389 58.334 71.6055 58.5977 71.6055 58.9297C71.6055 59.3268 71.8659 59.6621 72.3867 59.9355C72.9141 60.2025 73.4642 60.4759 74.0371 60.7559C74.597 61.0293 75.0332 61.3646 75.3457 61.7617C75.6582 62.1589 75.8145 62.6178 75.8145 63.1387C75.8145 64.0436 75.401 64.7891 74.5742 65.375C73.7474 65.9609 72.5104 66.2539 70.8633 66.2539C69.75 66.2539 68.8776 66.0358 68.2461 65.5996C67.6211 65.1634 67.3086 64.5059 67.3086 63.627C67.3086 63.36 67.3379 63.1224 67.3965 62.9141ZM76.5859 66L79.4277 56.4199H82.1816L79.3398 66H76.5859ZM79.8477 54.6816L80.5801 52.2109H83.5488L82.8164 54.6816H79.8477ZM81.4297 66L85.5117 52.2109H88.2656L84.1836 66H81.4297Z" fill="#06617C"/>
<g clip-path="url(#clip0_21_145)">
<path fill-rule="evenodd" clip-rule="evenodd" d="M45.5407 6.18614C44.7131 4.54028 43.9698 1.7025 43.9876 0.256309C43.9922 -0.130665 44.0072 -0.114764 44.2624 0.548587C44.697 1.67817 45.3604 2.92785 46.1243 4.05592C46.866 5.15102 48.0236 6.34832 54.0931 12.2981C55.7656 13.9378 57.4878 15.7266 57.9198 16.2731C60.4231 19.4398 61.9887 22.5429 62.7047 25.757C63.0989 27.5275 63.0985 27.8712 62.7029 27.0288C62.5368 26.6752 62.268 25.9914 62.1054 25.509C60.8737 21.8542 57.3028 17.5521 51.9184 13.236C48.3008 10.3361 46.7843 8.65985 45.5407 6.18614ZM35.9785 12.4696C35.1534 10.7805 35.1288 9.06238 35.9049 7.32941L36.219 6.62795L36.2959 7.63783C36.5403 10.849 38.3729 14.0022 41.7522 17.026C43.1871 18.31 44.2993 19.1793 47.5983 21.595C50.7141 23.8766 52.2586 25.1466 53.9028 26.7792C55.276 28.1431 55.3134 28.2331 54.0789 27.2041C52.7439 26.0914 50.2645 24.3151 46.4846 21.7639C44.3969 20.3546 42.0641 18.7249 41.3008 18.1421C38.7277 16.1781 36.7715 14.0929 35.9785 12.4696ZM29.6524 19.9559C28.3913 17.4731 29.0626 14.8408 31.6703 12.0435L32.2503 11.4213L32.3393 12.1699C32.5168 13.6631 33.2243 15.6789 33.757 16.2146L35.0825 17.8071C36.6835 19.5183 39.4591 21.4651 43.5726 23.7618C47.9817 26.2236 50.6281 28.0746 52.5245 30.0229C53.911 31.4473 54.5805 32.4829 55.0863 33.9851C55.4542 35.0779 55.6695 37.0615 55.6695 37.0615C55.7981 38.6403 55.6755 39.6612 54.8153 40.9602C53.473 42.9872 52.013 43.7192 49.759 44.6824C48.5997 45.1779 47.6295 45.3684 46.6259 45.5653C46.4271 45.6044 46.227 45.6438 46.0239 45.6857C44.612 45.9774 41.6908 45.9821 40.1293 45.6952C33.2029 44.4226 26.6508 38.6347 24.6227 31.9976C24.1201 30.3531 23.9983 29.5294 24 27.7888C24.0022 25.5564 24.3623 24.0909 25.4434 21.9141C25.7708 21.255 26.0825 20.7157 26.1361 20.7157L28.1358 22.6448L36.1667 29.1025C36.1667 29.1025 39.6995 31.6469 40.0686 33.7227C40.3165 35.1159 39.7578 36.2323 38.5629 36.791C35.7347 38.1133 31.406 34.8546 29.9302 33.7435C29.6048 33.4984 29.4181 33.3578 29.4167 33.3939C29.3837 34.2772 29.8809 34.8418 30.3959 35.4266C30.5197 35.5672 30.6446 35.709 30.7634 35.8568C31.4923 36.7629 32.2433 37.3359 33.5343 37.9707C35.0782 38.7296 36.5611 39.0792 38.5629 39.1557C40.6074 39.2338 41.5148 39.0888 42.7709 38.483C43.9304 37.9238 44.7057 37.1312 44.9721 36.2323C45.1957 35.4784 45.1942 35.0588 44.9653 34.2866C44.3541 32.2252 42.0852 29.9487 38.4903 27.7899C33.7424 24.9385 30.9064 22.4246 29.6524 19.9559ZM53.473 23.2292C53.473 23.2292 43.7269 15.5554 42.2092 13.196C40.8594 11.0976 40.7745 10.8598 40.4529 9.95933C40.4128 9.84739 40.3692 9.72523 40.319 9.58798C39.8685 8.40672 39.586 7.1833 39.3842 5.55935C40.151 3.72487 41.6372 1.2977 41.6372 1.2977C42.2258 3.85666 43.4347 7.56321 43.4347 7.56321C44.5959 10.7466 47.2716 13.47 49.9713 15.4546C50.1482 15.5848 50.323 15.7131 50.4959 15.84C54.5376 18.8072 57.4305 20.9311 60.1846 25.3336C61.6108 27.6134 61.9634 28.7226 62.5191 31.413C63.5696 36.4987 56.6245 40.6491 56.6245 40.6491C59.0758 36.2064 60.293 32.2869 57.9413 27.8472C56.766 25.6288 53.473 23.2292 53.473 23.2292Z" fill="#06617C"/>
</g>
<defs>
<clipPath id="clip0_21_145">
<rect width="39" height="46" fill="white" transform="translate(24)"/>
</clipPath>
</defs>
</svg>
